<svg width="658" height="102" viewBox="0 0 658 102" fill="none" xmlns="http://www.w3.org/2000/svg">
<g clip-path="url(#clip0)">
<path d="M52.2628 27.378L32.3234 37.3458V27.6101C32.3234 27.4027 32.1553 27.2345 31.9479 27.2345H21.6026C21.3952 27.2345 21.2271 27.4027 21.2271 27.6101V79.3263C21.2271 79.5337 21.3952 79.7019 21.6026 79.7019H37.0962C37.3037 79.7019 37.4718 79.5337 37.4718 79.3263V58.6398C37.4718 58.4324 37.3037 58.2642 37.0962 58.2642H32.3234V48.6722H52.2628V99.6371H32.3234V94.8651C32.3234 94.7351 32.2562 94.6143 32.1456 94.5458C32.0351 94.4773 31.897 94.4709 31.7806 94.5288L21.5144 99.6371H1.28768V7.25068H52.2628V27.378Z" fill="#F0F0F0" stroke="black" stroke-width="0.751142" stroke-miterlimit="10" stroke-linecap="round" stroke-linejoin="round"/>
<path d="M61.7474 42.6022L52.6824 47.921H33.3473L42.5399 42.6022H61.7474Z" fill="#1CFFC8" stroke="black" stroke-width="0.751142"/>
<path d="M62.7538 42.8763V93.7776L52.9654 99.5957V48.5137L62.7538 42.8763Z" fill="#078163" stroke="black" stroke-width="0.751142"/>
<path d="M31.5735 27.9372L31.7172 73.0878L21.9787 78.6774L22.0264 27.9372H31.5735Z" fill="#078163" stroke="black" stroke-width="0.751142"/>
<path d="M23.0114 78.9507L32.1936 73.6804H36.7206V78.9507H23.0114Z" fill="#1CFFC8" stroke="black" stroke-width="0.751142"/>
<path d="M52.9654 26.9145V7.14076L62.7538 1.50339V21.3221L52.9654 26.9145Z" fill="#078163" stroke="black" stroke-width="0.751142"/>
<path d="M61.7247 1.22925L52.4896 6.54799L2.31863 6.50084L11.5032 1.22925H61.7247Z" fill="#1CFFC8" stroke="black" stroke-width="0.751142"/>
<path d="M96.2771 58.9054L116.857 79.4819V99.6371H96.9182V79.3263C96.9182 79.2267 96.8786 79.1312 96.8081 79.0607L86.4629 68.7175C86.3555 68.6101 86.194 68.578 86.0536 68.6361C85.9133 68.6943 85.8218 68.8312 85.8218 68.9831V99.6371H65.8824V7.25069H116.857V58.2642H96.5426C96.3907 58.2642 96.2537 58.3558 96.1956 58.4961C96.1375 58.6365 96.1696 58.798 96.2771 58.9054ZM96.5426 48.6722C96.75 48.6722 96.9182 48.504 96.9182 48.2966V27.6101C96.9182 27.4027 96.75 27.2345 96.5426 27.2345H86.1974C85.9899 27.2345 85.8218 27.4027 85.8218 27.6101V48.2966C85.8218 48.504 85.9899 48.6722 86.1974 48.6722H96.5426Z" fill="#F0F0F0" stroke="black" stroke-width="0.751142" stroke-miterlimit="10" stroke-linecap="round" stroke-linejoin="round"/>
<path d="M117.183 6.49954H66.9166L76.0985 1.22927H126.365L117.183 6.49954Z" fill="#1CFFC8" stroke="black" stroke-width="0.751142"/>
<path d="M127.397 1.50229V52.401L117.657 57.9912V7.09259L127.397 1.50229Z" fill="#078163" stroke="black" stroke-width="0.751142"/>
<path d="M117.657 99.3641V79.5438L127.397 73.9535V93.7738L117.657 99.3641Z" fill="#078163" stroke="black" stroke-width="0.751142"/>
<path d="M117.344 78.8577L97.4513 59.0154H112.949L127.16 73.2235L117.344 78.8577Z" fill="#1CFFC8" stroke="black" stroke-width="0.751142"/>
<path d="M96.3121 93.7738L86.5728 99.3641V69.8808L96.3121 79.4835V93.7738Z" fill="#078163" stroke="black" stroke-width="0.751142"/>
<path d="M96.3121 42.01L86.5728 47.6454V27.9857H96.3121V42.01Z" fill="#078163" stroke="black" stroke-width="0.751142"/>
<path d="M87.5962 47.9211L96.3121 42.8779V47.9211H87.5962Z" fill="#1CFFC8" stroke="black" stroke-width="0.751142"/>
<path d="M605.936 7.25069H646.709V27.2346H616.049C615.841 27.2346 615.673 27.4027 615.673 27.6101V48.2966C615.673 48.504 615.841 48.6722 616.049 48.6722H646.709V79.2377L636.507 99.6371H595.734V79.7019H626.394C626.601 79.7019 626.77 79.5338 626.77 79.3263V58.6398C626.77 58.4324 626.601 58.2643 626.394 58.2643H595.734V27.6986L605.936 7.25069Z" fill="#F0F0F0" stroke="black" stroke-width="0.751142" stroke-miterlimit="10" stroke-linecap="round" stroke-linejoin="round"/>
<path d="M647.46 26.9589V7.09259L657.2 1.50229V21.3235L647.46 26.9589Z" fill="#078163" stroke="black" stroke-width="0.751142"/>
<path d="M656.166 1.22927L646.984 6.49954H607.112L616.295 1.22927H656.166Z" fill="#1CFFC8" stroke="black" stroke-width="0.751142"/>
<path d="M626.165 27.9857V42.01L616.424 47.6454V27.9857H626.165Z" fill="#078163" stroke="black" stroke-width="0.751142"/>
<path d="M647.46 78.6778V48.5132L657.2 42.8778V73.0874L647.46 78.6778Z" fill="#078163" stroke="black" stroke-width="0.751142"/>
<path d="M656.177 42.6022L646.984 47.9211H617.448L626.641 42.6022H656.177Z" fill="#1CFFC8" stroke="black" stroke-width="0.751142"/>
<path d="M637.631 99.0672L647.369 79.5957L656.682 74.2503L646.944 93.722L637.631 99.0672Z" fill="#1CFFC8" stroke="black" stroke-width="0.751142"/>
<path d="M605.949 73.6805H626.018V78.9508H596.767L605.949 73.6805Z" fill="#1CFFC8" stroke="black" stroke-width="0.751142"/>
<path d="M551.3 99.6371H531.14V59.0154H551.08V79.3263C551.08 79.4782 551.171 79.6152 551.311 79.6733C551.452 79.7314 551.613 79.6993 551.721 79.5919L562.066 69.2487C562.136 69.1783 562.176 69.0827 562.176 68.9831V7.25069H582.115V68.8275L551.3 99.6371Z" fill="#F0F0F0" stroke="black" stroke-width="0.751142" stroke-miterlimit="10" stroke-linecap="round" stroke-linejoin="round"/>
<path d="M541.356 52.9939H560.538L551.355 58.2643H532.173L541.356 52.9939Z" fill="#1CFFC8" stroke="black" stroke-width="0.751142"/>
<path d="M572.392 1.22927H591.574L582.391 6.49954H563.21L572.392 1.22927Z" fill="#1CFFC8" stroke="black" stroke-width="0.751142"/>
<path d="M553.719 98.28L582.721 69.284L590.718 64.6941L561.715 93.6904L553.719 98.28Z" fill="#1CFFC8" stroke="black" stroke-width="0.751142"/>
<path d="M582.868 7.09258L592.607 1.50231V62.7442L582.868 68.3344V7.09258Z" fill="#078163" stroke="black" stroke-width="0.751142"/>
<path d="M551.831 58.8573L561.564 53.2703L561.426 68.8261L551.831 78.4197V58.8573Z" fill="#078163" stroke="black" stroke-width="0.751142"/>
<path d="M497.585 99.637V79.7019H517.524V99.637H497.585Z" fill="#F0F0F0" stroke="black" stroke-width="0.751142" stroke-miterlimit="10" stroke-linecap="round" stroke-linejoin="round"/>
<path d="M518.275 99.3641V79.5438L528.015 73.9535V93.7738L518.275 99.3641Z" fill="#078163" stroke="black" stroke-width="0.751142"/>
<path d="M526.981 73.6805L517.799 78.9508H498.618L507.8 73.6805H526.981Z" fill="#1CFFC8" stroke="black" stroke-width="0.751142"/>
<path d="M453.257 79.7019H483.917V99.6371H432.942V7.25069H483.917V27.2346H453.257C453.049 27.2346 452.881 27.4027 452.881 27.6101V48.2966C452.881 48.504 453.049 48.6722 453.257 48.6722H463.227V58.2643H453.257C453.049 58.2643 452.881 58.4324 452.881 58.6398V79.3263C452.881 79.5338 453.049 79.7019 453.257 79.7019Z" fill="#F0F0F0" stroke="black" stroke-width="0.751142" stroke-miterlimit="10" stroke-linecap="round" stroke-linejoin="round"/>
<path d="M484.716 26.9589V7.09258L494.456 1.50232V21.3235L484.716 26.9589Z" fill="#078163" stroke="black" stroke-width="0.751142"/>
<path d="M493.425 1.22932L484.242 6.49959H433.977L443.159 1.22932H493.425Z" fill="#1CFFC8" stroke="black" stroke-width="0.751142"/>
<path d="M463.42 42.01L453.68 47.6454V27.9857H463.42V42.01Z" fill="#078163" stroke="black" stroke-width="0.751142"/>
<path d="M454.704 47.9211L463.897 42.6022H472.742L463.549 47.9211H454.704Z" fill="#1CFFC8" stroke="black" stroke-width="0.751142"/>
<path d="M473.766 52.401L464.026 57.9913V48.5132L473.766 42.8778V52.401Z" fill="#078163" stroke="black" stroke-width="0.751142"/>
<path d="M463.418 73.0886L453.68 78.6777V59.0154H463.278L463.418 73.0886Z" fill="#078163" stroke="black" stroke-width="0.751142"/>
<path d="M484.716 99.364V79.5438L494.456 73.9535V93.7738L484.716 99.364Z" fill="#078163" stroke="black" stroke-width="0.751142"/>
<path d="M493.423 73.6805L484.24 78.9508H454.714L463.896 73.6805H493.423Z" fill="#1CFFC8" stroke="black" stroke-width="0.751142"/>
<path d="M388.448 73.8431C388.321 73.9068 388.241 74.0368 388.241 74.179V99.6861H368.301V7.25068H419.276V58.4079L388.448 73.8431ZM399.13 48.6322C399.257 48.5685 399.337 48.4386 399.337 48.2966V27.6101C399.337 27.4027 399.169 27.2345 398.961 27.2345H388.616C388.409 27.2345 388.241 27.4027 388.241 27.6101V53.4925C388.241 53.6228 388.308 53.7438 388.419 53.8122C388.53 53.8806 388.668 53.8866 388.785 53.8282L399.13 48.6322Z" fill="#F0F0F0" stroke="black" stroke-width="0.751142" stroke-miterlimit="10" stroke-linecap="round" stroke-linejoin="round"/>
<path d="M419.602 6.49953H369.336L378.518 1.22925H428.784L419.602 6.49953Z" fill="#1CFFC8" stroke="black" stroke-width="0.751142"/>
<path d="M398.731 93.7738L388.992 99.364V74.4111L398.731 69.5421V93.7738Z" fill="#078163" stroke="black" stroke-width="0.751142"/>
<path d="M429.816 52.4009L420.076 57.9912V7.09257L429.816 1.50227V52.4009Z" fill="#078163" stroke="black" stroke-width="0.751142"/>
<path d="M398.587 47.2055L388.944 52.7916L388.991 27.9857H398.681L398.587 47.2055Z" fill="#078163" stroke="black" stroke-width="0.751142"/>
<mask id="path-47-inside-1" fill="white">
<path d="M398.962 48.2966V47.4225L388.567 53.4439L398.962 48.2966Z"/>
</mask>
<path d="M398.962 48.2966V47.4225L388.567 53.4439L398.962 48.2966Z" fill="#1CFFC8"/>
<path d="M398.962 48.2966L399.295 48.9698L399.713 48.7629V48.2966H398.962ZM398.962 47.4225H399.713V46.1193L398.585 46.7726L398.962 47.4225ZM388.567 53.4439L388.191 52.7939L388.901 54.117L388.567 53.4439ZM399.713 48.2966V47.4225H398.21V48.2966H399.713ZM398.585 46.7726L388.191 52.7939L388.944 54.0939L399.338 48.0725L398.585 46.7726ZM388.901 54.117L399.295 48.9698L398.628 47.6235L388.234 52.7708L388.901 54.117Z" fill="black" mask="url(#path-47-inside-1)"/>
<path d="M324.255 7.25068H354.683V99.6371H334.743V58.6398C334.743 58.4324 334.575 58.2642 334.368 58.2642H324.022C323.815 58.2642 323.647 58.4324 323.647 58.6398V99.6371H303.708V48.3852L324.255 7.25068ZM334.368 48.6722C334.575 48.6722 334.743 48.504 334.743 48.2966V27.6101C334.743 27.4359 334.624 27.2846 334.454 27.2446C334.284 27.2046 334.11 27.2863 334.032 27.4421L323.687 48.1286C323.628 48.245 323.635 48.3833 323.703 48.494C323.771 48.6048 323.892 48.6722 324.022 48.6722H334.368Z" fill="#F0F0F0" stroke="black" stroke-width="0.751142" stroke-miterlimit="10" stroke-linecap="round" stroke-linejoin="round"/>
<path d="M364.141 1.22925L354.958 6.49952H325.431L334.614 1.22925H364.141Z" fill="#1CFFC8" stroke="black" stroke-width="0.751142"/>
<path d="M365.174 1.50227V93.7738L355.434 99.364V7.09257L365.174 1.50227Z" fill="#078163" stroke="black" stroke-width="0.751142"/>
<path d="M334.138 93.7738L324.398 99.3641V59.0154H334.138V93.7738Z" fill="#078163" stroke="black" stroke-width="0.751142"/>
<path d="M333.992 45.0514L324.741 47.7003L333.992 29.2008V45.0514Z" fill="#078163" stroke="black" stroke-width="0.751142"/>
<path d="M333.993 47.921H325.276L333.993 42.8778V47.921Z" fill="#1CFFC8" stroke="black" stroke-width="0.751142"/>
<path d="M249.46 27.6101C249.46 27.4027 249.291 27.2345 249.084 27.2345H228.769V7.25068H290.138V27.2345H269.823C269.616 27.2345 269.448 27.4027 269.448 27.6101V99.6861H249.46V27.6101Z" fill="#F0F0F0" stroke="black" stroke-width="0.751142" stroke-miterlimit="10" stroke-linecap="round" stroke-linejoin="round"/>
<path d="M299.547 1.22961L290.365 6.49987H229.802L238.985 1.22961H299.547Z" fill="#1CFFC8" stroke="black" stroke-width="0.751142"/>
<path d="M279.89 27.9857V93.7738L270.15 99.3641V27.9857H279.89Z" fill="#078163" stroke="black" stroke-width="0.751142"/>
<path d="M290.841 26.9589V7.09256L300.581 1.5023V21.3235L290.841 26.9589Z" fill="#078163" stroke="black" stroke-width="0.751142"/>
<path d="M184.276 73.8431C184.149 73.9068 184.069 74.0368 184.069 74.179V99.6861H164.129V7.25069H215.104V58.4079L184.276 73.8431ZM195.006 48.6322C195.133 48.5685 195.213 48.4386 195.213 48.2966V27.6101C195.213 27.4027 195.045 27.2346 194.838 27.2346H184.492C184.285 27.2346 184.117 27.4027 184.117 27.6101V53.4925C184.117 53.6228 184.184 53.7438 184.295 53.8122C184.406 53.8806 184.545 53.8866 184.661 53.8282L195.006 48.6322Z" fill="#F0F0F0" stroke="black" stroke-width="0.751142" stroke-miterlimit="10" stroke-linecap="round" stroke-linejoin="round"/>
<path d="M215.904 57.9912V7.09259L225.644 1.50229V52.4009L215.904 57.9912Z" fill="#078163" stroke="black" stroke-width="0.751142"/>
<path d="M224.611 1.22928L215.428 6.49955H165.163L174.344 1.22928H224.611Z" fill="#1CFFC8" stroke="black" stroke-width="0.751142"/>
<path d="M184.87 74.4106L194.464 69.592V93.7754L184.87 99.3595V74.4106Z" fill="#078163" stroke="black" stroke-width="0.751142"/>
<path d="M194.464 47.2066L184.87 52.7908V27.9857H194.464V47.2066Z" fill="#078163" stroke="black" stroke-width="0.751142"/>
<mask id="path-64-inside-2" fill="white">
<path d="M194.839 47.4225V48.2966L184.494 53.444L194.839 47.4225Z"/>
</mask>
<path d="M194.839 47.4225V48.2966L184.494 53.444L194.839 47.4225Z" fill="#1CFFC8"/>
<path d="M194.839 47.4225H195.59V46.1162L194.461 46.7734L194.839 47.4225ZM194.839 48.2966L195.174 48.9691L195.59 48.7619V48.2966H194.839ZM184.494 53.444L184.116 52.7948L184.829 54.1165L184.494 53.444ZM194.088 47.4225V48.2966H195.59V47.4225H194.088ZM194.505 47.6241L184.16 52.7715L184.829 54.1165L195.174 48.9691L194.505 47.6241ZM184.872 54.0932L195.217 48.0717L194.461 46.7734L184.116 52.7948L184.872 54.0932Z" fill="black" mask="url(#path-64-inside-2)"/>
<path d="M130.148 100.013V6.87511H150.839V100.013H130.148Z" fill="#F0F0F0" stroke="black" stroke-width="1.50228" stroke-miterlimit="10" stroke-linecap="round" stroke-linejoin="round"/>
<path d="M151.264 99.364V7.09256L161.004 1.5023V93.7738L151.264 99.364Z" fill="#078163" stroke="black" stroke-width="0.751142"/>
<path d="M150.788 6.49953H131.557L140.74 1.22925H159.97L150.788 6.49953Z" fill="#1CFFC8" stroke="black" stroke-width="0.751142"/>
</g>
<defs>
<clipPath id="clip0">
<rect width="658" height="100.653" fill="white" transform="translate(0 0.673523)"/>
</clipPath>
</defs>
</svg>